<svg width="51" height="52" viewBox="0 0 51 52" fill="none" xmlns="http://www.w3.org/2000/svg">
<rect x="1" y="1" width="49" height="50" rx="5" stroke="#EEEEEE" stroke-width="2"/>
<path d="M41.6816 14.8839L41.5554 17.6682L41.4925 18.2986L40.8618 22.7114C40.7356 23.552 40.5884 24.3576 40.4202 25.1281C40.2521 25.8986 40.0628 26.634 39.8526 27.3345L39.4112 28.5953L38.9697 29.646C37.5402 33.1484 35.8795 35.7226 33.9874 37.3686L32.6 38.5769L30.771 39.8378C28.3744 41.5538 24.9898 42.6746 20.6171 43.2C17.842 43.2 16.0762 43.1123 15.3195 42.9372C13.3433 42.6221 11.7876 41.8866 10.6524 40.7308C10.358 40.4506 9.97967 39.8203 9.51706 38.8396L9.13883 37.5262L9.01258 36.0028C8.97059 35.6875 9.03371 34.952 9.20195 33.7963L9.89555 29.0156L10.6524 23.552L11.5984 17.563L11.7245 16.1448C11.7666 15.4092 11.5774 14.7963 11.1569 14.3061L11.6615 13.7807L13.1119 13.4129L14.5625 13.0977L17.6529 12.6775L18.4096 12.6248C20.0915 12.5198 20.9324 13.3254 20.9324 15.0415V15.3566L20.8062 16.1972L20.1125 19.9272L19.2297 23.2894L18.4727 26.7566L17.4006 32.01L16.896 35.0047L16.7699 37.0534C16.5597 39.61 17.8631 41.1861 20.6801 41.7815L21.6892 41.8866C23.5812 41.8866 25.4102 40.871 27.1761 38.8396C28.2273 37.6487 29.1523 36.1078 29.9511 34.2165C30.8341 32.0452 31.4226 30.0137 31.717 28.1226L31.9693 26.1262L32.5369 21.871L32.726 19.3493L32.8522 16.67C32.8942 15.3392 32.8101 14.0608 32.6 12.8351C32.6 12.2047 32.3266 11.4867 31.7799 10.6811L37.3929 9.21015C37.9817 9.07005 38.5493 9 39.0959 9C39.7266 9 40.2099 9.17513 40.5464 9.52535C41.3874 10.366 41.7656 12.1521 41.6816 14.8839Z" fill="#EEEEEE"/>
</svg>
