<svg width="202" height="45" viewBox="0 0 202 45" fill="none" xmlns="http://www.w3.org/2000/svg">
<rect x="7" y="2" width="38" height="39" rx="5" stroke="#444" stroke-width="2"/>
<path d="M38.9909 13.6452L38.8905 15.8433L38.8405 16.341L38.3389 19.8248C38.2385 20.4884 38.1215 21.1244 37.9877 21.7327C37.854 22.341 37.7035 22.9216 37.5363 23.4746L37.1853 24.47L36.8342 25.2995C35.6973 28.0645 34.3766 30.0968 32.8719 31.3963L31.7685 32.3502L30.3139 33.3456C28.408 34.7004 25.7163 35.5852 22.2388 36C20.0318 36 18.6275 35.9308 18.0257 35.7925C16.4541 35.5438 15.2169 34.9631 14.3141 34.0506C14.08 33.8294 13.7791 33.3318 13.4112 32.5576L13.1104 31.5207L13.01 30.318C12.9766 30.0691 13.0268 29.4884 13.1606 28.576L13.7122 24.8018L14.3141 20.4884L15.0664 15.7603L15.1667 14.6406C15.2002 14.0599 15.0497 13.576 14.7153 13.189L15.1166 12.7742L16.2701 12.4839L17.4237 12.235L19.8814 11.9033L20.4832 11.8617C21.8208 11.7788 22.4895 12.4148 22.4895 13.7696V14.0184L22.3892 14.682L21.8375 17.6267L21.1354 20.2811L20.5334 23.0184L19.6808 27.1658L19.2795 29.53L19.1792 31.1474C19.012 33.1658 20.0486 34.4101 22.2889 34.8801L23.0914 34.9631C24.5961 34.9631 26.0506 34.1613 27.455 32.5576C28.291 31.6174 29.0266 30.4009 29.6619 28.9078C30.3641 27.1936 30.8321 25.5898 31.0663 24.0968L31.2669 22.5207L31.7183 19.1613L31.8687 17.1705L31.9691 15.0553C32.0025 14.0046 31.9356 12.9954 31.7685 12.0277C31.7685 11.53 31.5511 10.9632 31.1163 10.3272L35.5802 9.16591C36.0484 9.0553 36.4998 9 36.9345 9C37.4361 9 37.8205 9.13826 38.0881 9.41475C38.7569 10.0784 39.0577 11.4885 38.9909 13.6452Z" fill="#444"/>
<path d="M56.48 27.015C56.45 26.865 56.45 26.705 56.48 26.535C56.94 26.495 57.27 26.45 57.47 26.4C57.68 26.35 57.81 26.25 57.86 26.1C57.92 25.94 57.95 25.685 57.95 25.335V18.36C57.95 17.94 57.925 17.64 57.875 17.46C57.825 17.28 57.695 17.165 57.485 17.115C57.275 17.055 56.935 17.005 56.465 16.965C56.435 16.815 56.435 16.655 56.465 16.485C56.665 16.485 56.91 16.49 57.2 16.5C57.5 16.5 57.795 16.505 58.085 16.515C58.375 16.515 58.61 16.515 58.79 16.515C58.97 16.515 59.2 16.515 59.48 16.515C59.77 16.505 60.06 16.5 60.35 16.5C60.65 16.49 60.89 16.485 61.07 16.485C61.1 16.635 61.1 16.795 61.07 16.965C60.61 17.005 60.275 17.05 60.065 17.1C59.855 17.15 59.725 17.255 59.675 17.415C59.625 17.565 59.6 17.815 59.6 18.165V21.12H65V18.36C65 17.94 64.975 17.64 64.925 17.46C64.875 17.28 64.75 17.165 64.55 17.115C64.35 17.055 64.015 17.005 63.545 16.965C63.525 16.815 63.525 16.655 63.545 16.485C63.735 16.485 63.975 16.49 64.265 16.5C64.555 16.5 64.845 16.505 65.135 16.515C65.425 16.515 65.66 16.515 65.84 16.515C66.04 16.515 66.28 16.515 66.56 16.515C66.84 16.505 67.12 16.5 67.4 16.5C67.69 16.49 67.935 16.485 68.135 16.485C68.155 16.635 68.155 16.795 68.135 16.965C67.665 17.005 67.325 17.05 67.115 17.1C66.905 17.15 66.775 17.255 66.725 17.415C66.675 17.565 66.65 17.815 66.65 18.165V25.14C66.65 25.55 66.675 25.85 66.725 26.04C66.775 26.22 66.9 26.34 67.1 26.4C67.31 26.45 67.655 26.495 68.135 26.535C68.155 26.705 68.155 26.865 68.135 27.015C67.925 27.015 67.675 27.01 67.385 27C67.095 27 66.805 27 66.515 27C66.235 26.99 66 26.985 65.81 26.985C65.63 26.985 65.4 26.99 65.12 27C64.84 27 64.56 27 64.28 27C64 27.01 63.76 27.015 63.56 27.015C63.53 26.865 63.53 26.705 63.56 26.535C64.02 26.495 64.35 26.45 64.55 26.4C64.75 26.35 64.875 26.25 64.925 26.1C64.975 25.94 65 25.685 65 25.335V21.78H59.6V25.14C59.6 25.56 59.625 25.86 59.675 26.04C59.725 26.22 59.85 26.34 60.05 26.4C60.26 26.45 60.6 26.495 61.07 26.535C61.09 26.705 61.09 26.865 61.07 27.015C60.87 27.015 60.625 27.01 60.335 27C60.045 27 59.755 27 59.465 27C59.185 26.99 58.95 26.985 58.76 26.985C58.58 26.985 58.345 26.99 58.055 27C57.775 27 57.49 27 57.2 27C56.92 27.01 56.68 27.015 56.48 27.015ZM75.8427 27.15C75.1827 27.15 74.7677 26.82 74.5977 26.16C73.8877 26.84 73.1627 27.18 72.4227 27.18C71.9127 27.18 71.4777 27.03 71.1177 26.73C70.7677 26.42 70.5927 25.995 70.5927 25.455C70.5927 24.135 71.9377 23.305 74.6277 22.965C74.6277 22.725 74.6277 22.48 74.6277 22.23C74.6377 21.98 74.6427 21.715 74.6427 21.435C74.6427 21.085 74.5127 20.815 74.2527 20.625C74.0027 20.425 73.6977 20.325 73.3377 20.325C73.0777 20.325 72.8577 20.365 72.6777 20.445C72.6777 20.675 72.6277 20.91 72.5277 21.15C72.4277 21.39 72.2877 21.595 72.1077 21.765C71.9377 21.925 71.7277 22.005 71.4777 22.005C71.2577 22.005 71.0827 21.945 70.9527 21.825C70.8327 21.695 70.7727 21.54 70.7727 21.36C70.7727 21.12 70.8827 20.895 71.1027 20.685C71.3327 20.465 71.6227 20.28 71.9727 20.13C72.3227 19.97 72.6877 19.845 73.0677 19.755C73.4477 19.665 73.7877 19.62 74.0877 19.62C74.4577 19.62 74.7977 19.69 75.1077 19.83C75.4277 19.96 75.6827 20.16 75.8727 20.43C76.0727 20.69 76.1727 21.015 76.1727 21.405C76.1727 21.645 76.1677 21.96 76.1577 22.35C76.1477 22.73 76.1377 23.14 76.1277 23.58C76.1277 24.01 76.1227 24.42 76.1127 24.81C76.1027 25.2 76.0977 25.515 76.0977 25.755C76.0977 26.075 76.2377 26.235 76.5177 26.235C76.6977 26.235 76.9727 26.175 77.3427 26.055C77.3827 26.105 77.4077 26.16 77.4177 26.22C77.4377 26.28 77.4527 26.335 77.4627 26.385C77.2127 26.655 76.9477 26.85 76.6677 26.97C76.3977 27.09 76.1227 27.15 75.8427 27.15ZM74.5977 25.755L74.6277 23.505C73.7077 23.625 73.0727 23.82 72.7227 24.09C72.3827 24.36 72.2127 24.705 72.2127 25.125C72.2127 25.475 72.3027 25.745 72.4827 25.935C72.6727 26.115 72.9077 26.205 73.1877 26.205C73.3677 26.205 73.5677 26.165 73.7877 26.085C74.0177 26.005 74.2877 25.895 74.5977 25.755ZM82.3401 30.825C81.4601 30.825 80.7501 30.67 80.2101 30.36C79.6701 30.05 79.4001 29.62 79.4001 29.07C79.4001 28.64 79.5501 28.285 79.8501 28.005C80.1501 27.725 80.5201 27.445 80.9601 27.165C80.5701 27.075 80.2751 26.92 80.0751 26.7C79.8751 26.47 79.7751 26.2 79.7751 25.89C79.7751 25.35 80.1701 24.805 80.9601 24.255C80.6301 24.045 80.3651 23.775 80.1651 23.445C79.9651 23.105 79.8651 22.715 79.8651 22.275C79.8651 21.725 80.0051 21.255 80.2851 20.865C80.5751 20.465 80.9501 20.16 81.4101 19.95C81.8801 19.73 82.3801 19.62 82.9101 19.62C83.6901 19.62 84.3401 19.835 84.8601 20.265C85.4001 19.835 85.9301 19.62 86.4501 19.62C86.7101 19.62 86.9151 19.68 87.0651 19.8C87.2151 19.91 87.2901 20.075 87.2901 20.295C87.2901 20.515 87.2201 20.69 87.0801 20.82C86.9401 20.95 86.7701 21.015 86.5701 21.015C86.3801 21.015 86.2151 20.96 86.0751 20.85C85.9451 20.73 85.8601 20.565 85.8201 20.355C85.6801 20.385 85.5651 20.42 85.4751 20.46C85.3951 20.5 85.3001 20.555 85.1901 20.625C85.5301 21.055 85.7001 21.565 85.7001 22.155C85.7001 22.705 85.5651 23.175 85.2951 23.565C85.0251 23.945 84.6651 24.24 84.2151 24.45C83.7751 24.65 83.2901 24.75 82.7601 24.75C82.2601 24.75 81.7951 24.66 81.3651 24.48C81.1151 24.73 80.9901 24.995 80.9901 25.275C80.9901 25.525 81.0851 25.685 81.2751 25.755C81.4651 25.815 81.8151 25.845 82.3251 25.845C82.5551 25.845 82.8301 25.845 83.1501 25.845C83.4701 25.835 83.7051 25.83 83.8551 25.83C84.8551 25.83 85.5751 26.01 86.0151 26.37C86.4551 26.72 86.6751 27.205 86.6751 27.825C86.6751 28.315 86.5551 28.745 86.3151 29.115C86.0751 29.495 85.7501 29.81 85.3401 30.06C84.9301 30.32 84.4651 30.51 83.9451 30.63C83.4351 30.76 82.9001 30.825 82.3401 30.825ZM81.6051 27.24C81.0651 27.69 80.7951 28.165 80.7951 28.665C80.7951 29.015 80.9001 29.3 81.1101 29.52C81.3201 29.74 81.5951 29.9 81.9351 30C82.2751 30.1 82.6351 30.15 83.0151 30.15C83.3551 30.15 83.7101 30.1 84.0801 30C84.4501 29.9 84.7651 29.72 85.0251 29.46C85.2851 29.21 85.4151 28.855 85.4151 28.395C85.4151 27.975 85.2651 27.675 84.9651 27.495C84.6751 27.315 84.1301 27.225 83.3301 27.225C83.1401 27.225 82.9051 27.225 82.6251 27.225C82.3451 27.235 82.0351 27.24 81.6951 27.24C81.6651 27.24 81.6351 27.24 81.6051 27.24ZM82.7901 24.225C83.2301 24.225 83.5651 24.05 83.7951 23.7C84.0351 23.34 84.1551 22.845 84.1551 22.215C84.1551 21.575 84.0351 21.07 83.7951 20.7C83.5551 20.33 83.2051 20.145 82.7451 20.145C82.3151 20.145 81.9801 20.32 81.7401 20.67C81.5101 21.01 81.3951 21.495 81.3951 22.125C81.3951 22.765 81.5151 23.275 81.7551 23.655C82.0051 24.035 82.3501 24.225 82.7901 24.225ZM92.4514 27.18C91.7414 27.18 91.1414 27.015 90.6514 26.685C90.1614 26.355 89.7864 25.915 89.5264 25.365C89.2764 24.805 89.1514 24.19 89.1514 23.52C89.1514 22.83 89.2814 22.19 89.5414 21.6C89.8114 21.01 90.2014 20.535 90.7114 20.175C91.2214 19.805 91.8414 19.62 92.5714 19.62C93.4514 19.62 94.1364 19.885 94.6264 20.415C95.1264 20.935 95.3764 21.61 95.3764 22.44C95.3764 22.54 95.3714 22.63 95.3614 22.71C95.3614 22.78 95.3564 22.84 95.3464 22.89L90.6214 22.845C90.6214 22.885 90.6214 22.92 90.6214 22.95C90.6214 23.93 90.8464 24.7 91.2964 25.26C91.7464 25.82 92.3764 26.1 93.1864 26.1C93.8664 26.1 94.5364 25.88 95.1964 25.44C95.2964 25.56 95.3714 25.675 95.4214 25.785C94.5714 26.715 93.5814 27.18 92.4514 27.18ZM90.6664 22.29L93.7714 22.23C93.7814 22.21 93.7864 22.185 93.7864 22.155C93.7864 22.115 93.7864 22.09 93.7864 22.08C93.7864 21.54 93.6664 21.09 93.4264 20.73C93.1964 20.37 92.8514 20.19 92.3914 20.19C91.9614 20.19 91.5864 20.365 91.2664 20.715C90.9464 21.065 90.7464 21.59 90.6664 22.29ZM97.9275 27.015C97.8975 26.855 97.8975 26.7 97.9275 26.55C98.2675 26.53 98.5175 26.5 98.6775 26.46C98.8375 26.41 98.9425 26.31 98.9925 26.16C99.0425 26.01 99.0675 25.77 99.0675 25.44V22.08C99.0675 21.69 99.0475 21.4 99.0075 21.21C98.9775 21.02 98.8825 20.89 98.7225 20.82C98.5725 20.74 98.3125 20.675 97.9425 20.625C97.9125 20.485 97.9125 20.355 97.9425 20.235C98.3425 20.155 98.7325 20.065 99.1125 19.965C99.4925 19.855 99.8925 19.715 100.312 19.545L100.567 19.635V20.955C101.267 20.065 101.982 19.62 102.712 19.62C103.062 19.62 103.322 19.715 103.492 19.905C103.662 20.085 103.747 20.29 103.747 20.52C103.747 20.79 103.657 21 103.477 21.15C103.297 21.29 103.092 21.36 102.862 21.36C102.672 21.36 102.482 21.31 102.292 21.21C102.112 21.11 101.977 20.955 101.887 20.745C101.547 20.745 101.242 20.88 100.972 21.15C100.712 21.41 100.582 21.715 100.582 22.065V25.29C100.582 25.68 100.602 25.96 100.642 26.13C100.692 26.3 100.812 26.41 101.002 26.46C101.202 26.5 101.522 26.53 101.962 26.55C101.982 26.69 101.982 26.845 101.962 27.015C101.622 27.015 101.272 27.01 100.912 27C100.552 26.99 100.182 26.985 99.8025 26.985C99.4325 26.985 99.1025 26.99 98.8125 27C98.5325 27.01 98.2375 27.015 97.9275 27.015ZM108.767 27.18C108.057 27.18 107.457 27.015 106.967 26.685C106.477 26.355 106.102 25.915 105.842 25.365C105.592 24.805 105.467 24.19 105.467 23.52C105.467 22.83 105.597 22.19 105.857 21.6C106.127 21.01 106.517 20.535 107.027 20.175C107.537 19.805 108.157 19.62 108.887 19.62C109.767 19.62 110.452 19.885 110.942 20.415C111.442 20.935 111.692 21.61 111.692 22.44C111.692 22.54 111.687 22.63 111.677 22.71C111.677 22.78 111.672 22.84 111.662 22.89L106.937 22.845C106.937 22.885 106.937 22.92 106.937 22.95C106.937 23.93 107.162 24.7 107.612 25.26C108.062 25.82 108.692 26.1 109.502 26.1C110.182 26.1 110.852 25.88 111.512 25.44C111.612 25.56 111.687 25.675 111.737 25.785C110.887 26.715 109.897 27.18 108.767 27.18ZM106.982 22.29L110.087 22.23C110.097 22.21 110.102 22.185 110.102 22.155C110.102 22.115 110.102 22.09 110.102 22.08C110.102 21.54 109.982 21.09 109.742 20.73C109.512 20.37 109.167 20.19 108.707 20.19C108.277 20.19 107.902 20.365 107.582 20.715C107.262 21.065 107.062 21.59 106.982 22.29ZM121.159 27.015C121.139 26.865 121.139 26.705 121.159 26.535C121.659 26.485 122.014 26.44 122.224 26.4C122.434 26.35 122.564 26.25 122.614 26.1C122.664 25.95 122.689 25.695 122.689 25.335V17.145H121.609C121.079 17.145 120.659 17.22 120.349 17.37C120.049 17.51 119.804 17.725 119.614 18.015C119.434 18.305 119.254 18.675 119.074 19.125C118.914 19.145 118.754 19.145 118.594 19.125C118.654 18.645 118.709 18.185 118.759 17.745C118.819 17.305 118.869 16.88 118.909 16.47C119.559 16.51 120.279 16.535 121.069 16.545C121.859 16.545 122.679 16.545 123.529 16.545C124.389 16.545 125.214 16.545 126.004 16.545C126.804 16.535 127.524 16.51 128.164 16.47C128.204 16.87 128.244 17.295 128.284 17.745C128.324 18.185 128.374 18.645 128.434 19.125C128.264 19.145 128.099 19.145 127.939 19.125C127.749 18.665 127.559 18.29 127.369 18C127.179 17.71 126.934 17.495 126.634 17.355C126.344 17.215 125.934 17.145 125.404 17.145H124.339V25.14C124.339 25.45 124.349 25.695 124.369 25.875C124.389 26.055 124.444 26.185 124.534 26.265C124.634 26.345 124.789 26.405 124.999 26.445C125.209 26.475 125.499 26.505 125.869 26.535C125.899 26.695 125.899 26.855 125.869 27.015C125.659 27.015 125.404 27.01 125.104 27C124.814 27 124.524 27 124.234 27C123.944 26.99 123.699 26.985 123.499 26.985C123.309 26.985 123.069 26.99 122.779 27C122.499 27 122.209 27 121.909 27C121.619 27.01 121.369 27.015 121.159 27.015ZM134.264 27.015C133.984 27.015 133.694 27.01 133.394 27C133.094 26.99 132.769 26.985 132.419 26.985C132.099 26.985 131.774 26.99 131.444 27C131.124 27.01 130.814 27.015 130.514 27.015C130.484 26.855 130.484 26.7 130.514 26.55C130.854 26.53 131.104 26.5 131.264 26.46C131.424 26.41 131.529 26.31 131.579 26.16C131.629 26.01 131.654 25.77 131.654 25.44V22.08C131.654 21.69 131.639 21.4 131.609 21.21C131.579 21.02 131.484 20.89 131.324 20.82C131.174 20.74 130.909 20.675 130.529 20.625C130.499 20.485 130.499 20.355 130.529 20.235C130.969 20.155 131.389 20.055 131.789 19.935C132.189 19.815 132.574 19.685 132.944 19.545L133.199 19.635C133.189 19.945 133.179 20.235 133.169 20.505C133.169 20.775 133.169 21.03 133.169 21.27V25.29C133.169 25.68 133.189 25.96 133.229 26.13C133.279 26.3 133.379 26.41 133.529 26.46C133.689 26.5 133.934 26.53 134.264 26.55C134.294 26.7 134.294 26.855 134.264 27.015ZM131.264 16.995C131.264 16.705 131.364 16.46 131.564 16.26C131.774 16.06 132.024 15.96 132.314 15.96C132.594 15.96 132.834 16.06 133.034 16.26C133.244 16.46 133.349 16.7 133.349 16.98C133.349 17.24 133.249 17.48 133.049 17.7C132.849 17.91 132.594 18.015 132.284 18.015C132.004 18.015 131.764 17.915 131.564 17.715C131.364 17.515 131.264 17.275 131.264 16.995ZM142.587 25.545C142.687 25.665 142.762 25.78 142.812 25.89C141.982 26.75 141.032 27.18 139.962 27.18C139.272 27.18 138.682 27.015 138.192 26.685C137.702 26.355 137.322 25.915 137.052 25.365C136.792 24.815 136.662 24.205 136.662 23.535C136.662 22.805 136.812 22.145 137.112 21.555C137.412 20.965 137.832 20.495 138.372 20.145C138.922 19.795 139.552 19.62 140.262 19.62C140.632 19.62 141.007 19.675 141.387 19.785C141.767 19.885 142.087 20.045 142.347 20.265C142.607 20.485 142.737 20.765 142.737 21.105C142.737 21.375 142.657 21.58 142.497 21.72C142.337 21.86 142.147 21.93 141.927 21.93C141.627 21.93 141.372 21.795 141.162 21.525C140.952 21.245 140.847 20.875 140.847 20.415C140.667 20.295 140.427 20.235 140.127 20.235C139.767 20.235 139.462 20.325 139.212 20.505C138.972 20.685 138.772 20.925 138.612 21.225C138.462 21.525 138.352 21.85 138.282 22.2C138.212 22.54 138.177 22.875 138.177 23.205C138.177 23.765 138.272 24.265 138.462 24.705C138.652 25.145 138.932 25.495 139.302 25.755C139.672 26.005 140.132 26.13 140.682 26.13C141.002 26.13 141.312 26.085 141.612 25.995C141.922 25.905 142.247 25.755 142.587 25.545ZM144.938 27.015C144.928 26.975 144.923 26.935 144.923 26.895C144.923 26.855 144.923 26.815 144.923 26.775C144.923 26.735 144.923 26.7 144.923 26.67C144.923 26.63 144.928 26.59 144.938 26.55C145.278 26.53 145.528 26.5 145.688 26.46C145.848 26.41 145.953 26.31 146.003 26.16C146.053 26.01 146.078 25.77 146.078 25.44V17.925C146.078 17.615 146.048 17.385 145.988 17.235C145.938 17.075 145.823 16.965 145.643 16.905C145.473 16.835 145.213 16.785 144.863 16.755C144.853 16.715 144.848 16.68 144.848 16.65C144.848 16.62 144.848 16.59 144.848 16.56C144.848 16.52 144.848 16.485 144.848 16.455C144.848 16.425 144.853 16.39 144.863 16.35C145.263 16.3 145.673 16.225 146.093 16.125C146.513 16.015 146.943 15.865 147.383 15.675L147.638 15.765C147.628 15.985 147.618 16.235 147.608 16.515C147.608 16.795 147.608 17.1 147.608 17.43V22.995C147.728 22.995 147.828 22.975 147.908 22.935C147.988 22.895 148.053 22.855 148.103 22.815C148.123 22.795 148.163 22.76 148.223 22.71C148.283 22.65 148.388 22.545 148.538 22.395C148.688 22.245 148.903 22.02 149.183 21.72C149.443 21.43 149.648 21.205 149.798 21.045C149.958 20.875 150.038 20.735 150.038 20.625C150.038 20.545 149.968 20.48 149.828 20.43C149.698 20.37 149.518 20.335 149.288 20.325C149.278 20.285 149.273 20.245 149.273 20.205C149.273 20.165 149.273 20.125 149.273 20.085C149.273 20.045 149.273 20.005 149.273 19.965C149.273 19.925 149.278 19.885 149.288 19.845C149.488 19.845 149.738 19.85 150.038 19.86C150.348 19.87 150.623 19.875 150.863 19.875C150.983 19.875 151.153 19.875 151.373 19.875C151.603 19.865 151.833 19.86 152.063 19.86C152.293 19.86 152.463 19.86 152.573 19.86C152.583 19.9 152.588 19.94 152.588 19.98C152.598 20.02 152.603 20.06 152.603 20.1C152.603 20.14 152.598 20.18 152.588 20.22C152.588 20.25 152.583 20.285 152.573 20.325C152.053 20.335 151.613 20.465 151.253 20.715C150.893 20.955 150.548 21.24 150.218 21.57L149.138 22.65L151.208 25.38C151.428 25.67 151.608 25.9 151.748 26.07C151.898 26.23 152.058 26.345 152.228 26.415C152.398 26.485 152.633 26.53 152.933 26.55C152.953 26.69 152.953 26.845 152.933 27.015C152.803 27.015 152.608 27.01 152.348 27C152.098 26.99 151.703 26.985 151.163 26.985C151.083 26.985 150.963 26.985 150.803 26.985C150.643 26.985 150.493 26.995 150.353 27.015C150.353 26.905 150.293 26.755 150.173 26.565C150.053 26.365 149.958 26.22 149.888 26.13C149.858 26.08 149.783 25.975 149.663 25.815C149.543 25.645 149.398 25.45 149.228 25.23C149.068 25 148.903 24.77 148.733 24.54C148.563 24.3 148.408 24.09 148.268 23.91C148.158 23.76 148.053 23.645 147.953 23.565C147.863 23.475 147.748 23.43 147.608 23.43V25.29C147.608 25.68 147.623 25.96 147.653 26.13C147.693 26.3 147.778 26.41 147.908 26.46C148.048 26.5 148.258 26.53 148.538 26.55C148.558 26.7 148.558 26.855 148.538 27.015C148.278 27.015 148.003 27.01 147.713 27C147.433 26.99 147.128 26.985 146.798 26.985C146.478 26.985 146.163 26.99 145.853 27C145.543 27.01 145.238 27.015 144.938 27.015ZM157.889 27.18C157.179 27.18 156.579 27.015 156.089 26.685C155.599 26.355 155.224 25.915 154.964 25.365C154.714 24.805 154.589 24.19 154.589 23.52C154.589 22.83 154.719 22.19 154.979 21.6C155.249 21.01 155.639 20.535 156.149 20.175C156.659 19.805 157.279 19.62 158.009 19.62C158.889 19.62 159.574 19.885 160.064 20.415C160.564 20.935 160.814 21.61 160.814 22.44C160.814 22.54 160.809 22.63 160.799 22.71C160.799 22.78 160.794 22.84 160.784 22.89L156.059 22.845C156.059 22.885 156.059 22.92 156.059 22.95C156.059 23.93 156.284 24.7 156.734 25.26C157.184 25.82 157.814 26.1 158.624 26.1C159.304 26.1 159.974 25.88 160.634 25.44C160.734 25.56 160.809 25.675 160.859 25.785C160.009 26.715 159.019 27.18 157.889 27.18ZM156.104 22.29L159.209 22.23C159.219 22.21 159.224 22.185 159.224 22.155C159.224 22.115 159.224 22.09 159.224 22.08C159.224 21.54 159.104 21.09 158.864 20.73C158.634 20.37 158.289 20.19 157.829 20.19C157.399 20.19 157.024 20.365 156.704 20.715C156.384 21.065 156.184 21.59 156.104 22.29ZM166.245 27.18C165.645 27.18 165.17 27.04 164.82 26.76C164.47 26.47 164.295 26.055 164.295 25.515C164.295 24.635 164.3 23.785 164.31 22.965C164.33 22.145 164.345 21.355 164.355 20.595H163.215C163.185 20.445 163.185 20.31 163.215 20.19C164.205 19.77 164.95 19.085 165.45 18.135C165.53 18.135 165.61 18.14 165.69 18.15C165.77 18.15 165.84 18.155 165.9 18.165C165.89 18.425 165.88 18.7 165.87 18.99C165.87 19.28 165.865 19.585 165.855 19.905H168.135C168.165 20.125 168.165 20.355 168.135 20.595H165.855C165.835 21.295 165.82 22.035 165.81 22.815C165.81 23.585 165.81 24.36 165.81 25.14C165.81 25.95 166.23 26.355 167.07 26.355C167.43 26.355 167.765 26.26 168.075 26.07C168.165 26.19 168.22 26.34 168.24 26.52C167.65 26.96 166.985 27.18 166.245 27.18ZM170.99 24.63C171.14 25.29 171.38 25.795 171.71 26.145C172.04 26.485 172.465 26.655 172.985 26.655C173.375 26.655 173.705 26.565 173.975 26.385C174.245 26.195 174.38 25.9 174.38 25.5C174.38 25.2 174.305 24.96 174.155 24.78C174.015 24.6 173.815 24.45 173.555 24.33C173.305 24.2 173.02 24.07 172.7 23.94C172.33 23.79 171.98 23.63 171.65 23.46C171.33 23.28 171.065 23.06 170.855 22.8C170.655 22.53 170.555 22.185 170.555 21.765C170.555 21.285 170.68 20.89 170.93 20.58C171.19 20.26 171.52 20.02 171.92 19.86C172.33 19.7 172.765 19.62 173.225 19.62C173.455 19.62 173.685 19.635 173.915 19.665C174.145 19.695 174.27 19.71 174.29 19.71C174.49 19.74 174.675 19.76 174.845 19.77C175.015 19.77 175.105 19.77 175.115 19.77C175.125 19.77 175.145 19.77 175.175 19.77C175.215 19.77 175.265 19.765 175.325 19.755C175.325 20.075 175.33 20.4 175.34 20.73C175.35 21.06 175.37 21.41 175.4 21.78C175.39 21.78 175.37 21.78 175.34 21.78C175.25 21.79 175.165 21.8 175.085 21.81C175.015 21.81 174.945 21.805 174.875 21.795C174.745 21.235 174.55 20.83 174.29 20.58C174.04 20.32 173.685 20.19 173.225 20.19C172.815 20.19 172.485 20.28 172.235 20.46C171.995 20.64 171.875 20.89 171.875 21.21C171.875 21.47 171.955 21.685 172.115 21.855C172.275 22.015 172.47 22.15 172.7 22.26C172.93 22.37 173.15 22.465 173.36 22.545C173.75 22.695 174.12 22.865 174.47 23.055C174.83 23.235 175.12 23.47 175.34 23.76C175.57 24.05 175.685 24.44 175.685 24.93C175.685 25.45 175.55 25.88 175.28 26.22C175.02 26.55 174.685 26.795 174.275 26.955C173.865 27.105 173.435 27.18 172.985 27.18C172.725 27.18 172.465 27.16 172.205 27.12C171.955 27.08 171.82 27.06 171.8 27.06C171.78 27.06 171.695 27.05 171.545 27.03C171.405 27.01 171.245 26.99 171.065 26.97C170.895 26.95 170.745 26.94 170.615 26.94C170.615 26.63 170.6 26.285 170.57 25.905C170.55 25.525 170.525 25.105 170.495 24.645C170.515 24.645 170.54 24.645 170.57 24.645C170.66 24.635 170.735 24.63 170.795 24.63C170.865 24.62 170.93 24.62 170.99 24.63Z" fill="#444"/>
</svg>
